
<svg width="100%" height="100%" viewBox="0 0 202 148" version="1.1" xmlns="http://www.w3.org/2000/svg" xmlns:xlink="http://www.w3.org/1999/xlink" xml:space="preserve" >
    <g transform="matrix(0.727273,0,0,0.729385,-189.909,-111.768)">
        <path d="M320.522,337.127C339.363,363.108 367.606,358.472 396.563,340.407C439.516,313.61 484.05,257.282 501.108,229.809C518.386,201.98 509.446,171.615 488.819,159.522C475.063,151.457 456.071,151.461 436.12,165.828C416.509,179.951 378.482,188.353 346.182,202.014C321.707,212.365 300.527,225.746 292.838,246.714C285.158,267.658 290.89,296.265 320.522,337.127ZM321.736,336.246C292.541,295.986 286.68,267.866 294.246,247.23C301.804,226.62 322.709,213.57 346.767,203.396C379.177,189.688 417.319,181.217 436.996,167.046C456.333,153.12 474.727,152.999 488.06,160.816C508.068,172.546 516.593,202.024 499.833,229.018C482.852,256.369 438.531,312.457 395.769,339.134C367.581,356.719 340.076,361.536 321.736,336.246ZM324.873,332.373C342.347,356.778 368.751,352.261 395.884,335.091C436.177,309.594 478.087,256.218 494.168,230.206C510.433,203.897 502.232,175.322 483.031,164.022C470.224,156.486 452.488,156.584 433.789,170.222C415.376,183.651 379.761,191.769 349.479,204.823C326.562,214.702 306.703,227.415 299.42,247.227C292.143,267.019 297.376,293.971 324.873,332.373ZM325.889,331.646C298.75,293.742 293.411,267.193 300.593,247.658C307.768,228.143 327.4,215.702 349.974,205.971C380.348,192.877 416.057,184.702 434.526,171.232C452.71,157.97 469.943,157.771 482.397,165.1C501.089,176.099 508.938,203.938 493.105,229.549C477.087,255.459 435.351,308.638 395.216,334.035C368.73,350.795 342.946,355.468 325.889,331.646ZM328.58,327.793C345.099,350.864 370.06,346.574 395.709,330.343C433.858,306.203 473.537,255.666 488.762,231.039C504.135,206.173 496.394,179.164 478.247,168.485C466.143,161.363 449.383,161.463 431.712,174.351C414.269,187.073 380.532,194.765 351.846,207.131C330.167,216.477 311.376,228.497 304.485,247.238C297.601,265.964 302.565,291.46 328.58,327.793ZM329.393,327.211C303.664,291.277 298.615,266.103 305.424,247.583C312.227,229.079 330.837,217.277 352.242,208.05C381.001,195.652 414.813,187.913 432.301,175.159C449.56,162.572 465.918,162.391 477.739,169.347C495.479,179.786 502.939,206.206 487.912,230.513C472.737,255.059 433.197,305.438 395.174,329.498C370.043,345.401 345.578,349.816 329.393,327.211ZM332.68,322.52C348.221,344.126 371.639,340.141 395.682,325.005C431.487,302.464 468.685,255.204 482.949,232.167C497.331,208.939 490.029,183.667 472.982,173.649C461.614,166.968 445.89,167.04 429.332,179.06C412.957,190.949 381.256,198.1 354.311,209.636C333.97,218.344 316.341,229.557 309.904,247.084C303.47,264.599 308.186,288.468 332.68,322.52ZM333.329,322.053C309.065,288.321 304.282,264.71 310.654,247.36C317.023,230.023 334.505,218.985 354.626,210.371C381.63,198.81 413.391,191.622 429.802,179.708C446.031,167.926 461.435,167.791 472.577,174.339C489.296,184.164 496.374,208.965 482.269,231.746C468.045,254.718 430.96,301.851 395.256,324.328C371.626,339.204 348.604,343.288 333.329,322.053ZM337.172,317.418C351.379,337.404 372.946,333.591 395.136,319.436C428.224,298.33 462.702,254.244 475.945,232.772C489.276,211.155 482.675,187.735 467.037,178.514C456.608,172.364 442.143,172.503 426.858,183.731C411.711,194.857 382.459,201.646 357.57,212.491C338.806,220.667 322.523,231.151 316.52,247.456C310.52,263.752 314.768,285.897 337.172,317.418ZM337.661,317.07C315.427,285.789 311.128,263.836 317.083,247.664C323.034,231.5 339.208,221.146 357.81,213.041C382.742,202.177 412.04,195.36 427.214,184.214C442.25,173.169 456.473,172.981 466.732,179.031C482.127,188.109 488.558,211.176 475.434,232.457C462.221,253.881 427.826,297.872 394.813,318.93C372.936,332.885 351.668,336.775 337.661,317.07ZM340.62,313.135C353.947,331.884 374.179,328.289 394.994,315.011C426.086,295.178 458.484,253.75 470.928,233.573C483.431,213.3 477.249,191.333 462.583,182.685C452.803,176.918 439.239,177.055 424.906,187.584C410.664,198.045 383.161,204.431 359.759,214.628C342.143,222.304 326.853,232.141 321.217,247.448C315.583,262.749 319.583,283.539 340.62,313.135ZM340.946,312.904C320.022,283.467 315.988,262.805 321.592,247.586C327.193,232.373 342.412,222.623 359.919,214.994C383.35,204.785 410.883,198.381 425.142,187.906C439.31,177.499 452.713,177.329 462.38,183.029C476.884,191.582 482.953,213.314 470.588,233.363C458.164,253.508 425.821,294.873 394.779,314.674C374.172,327.819 354.139,331.465 340.946,312.904Z" fill='url(#lines)'/>
    </g>
    <g transform="matrix(0.727273,0,0,0.729385,-189.909,-111.768)">

            <path d="M345.45,274.157C342.908,274.157 340.507,273.548 338.245,272.331C335.983,271.114 334.153,269.237 332.756,266.702C331.358,264.166 330.659,260.895 330.659,256.889L330.659,235.893C330.659,235.336 330.862,234.854 331.269,234.448C331.676,234.042 332.159,233.84 332.718,233.84L347.28,233.84C347.839,233.84 348.322,234.042 348.728,234.448C349.135,234.854 349.338,235.336 349.338,235.893L349.338,256.356C349.338,259.145 350.609,260.54 353.15,260.54C354.37,260.54 355.31,260.185 355.971,259.475C356.632,258.765 356.962,257.726 356.962,256.356L356.962,235.893C356.962,235.336 357.165,234.854 357.572,234.448C357.979,234.042 358.462,233.84 359.021,233.84L373.506,233.84C374.065,233.84 374.548,234.042 374.955,234.448C375.362,234.854 375.565,235.336 375.565,235.893L375.565,271.342C375.565,271.9 375.362,272.382 374.955,272.787C374.548,273.193 374.065,273.396 373.506,273.396L360.164,273.396C359.605,273.396 359.122,273.193 358.716,272.787C358.309,272.382 358.106,271.9 358.106,271.342L358.106,268.832C356.835,270.708 355.082,272.065 352.845,272.901C350.609,273.738 348.144,274.157 345.45,274.157ZM417.65,274.157C415.464,274.157 413.418,273.84 411.512,273.206C409.606,272.572 407.929,271.558 406.48,270.163C405.032,268.768 403.876,266.955 403.012,264.724C402.147,262.493 401.639,259.779 401.487,256.584C401.436,255.418 401.41,254.404 401.41,253.542C401.41,252.68 401.436,251.691 401.487,250.575C401.588,247.583 402.071,244.984 402.935,242.778C403.799,240.572 404.956,238.759 406.404,237.339C407.853,235.919 409.543,234.854 411.474,234.144C413.406,233.434 415.464,233.079 417.65,233.079C419.784,233.079 421.703,233.396 423.406,234.03C425.109,234.664 426.57,235.538 427.79,236.654L427.79,221.44C427.79,220.882 427.993,220.401 428.4,219.995C428.806,219.589 429.289,219.386 429.848,219.386L443.953,219.386C444.512,219.386 444.995,219.589 445.401,219.995C445.808,220.401 446.011,220.882 446.011,221.44L446.011,271.342C446.011,271.9 445.808,272.382 445.401,272.787C444.995,273.193 444.512,273.396 443.953,273.396L430.992,273.396C430.433,273.396 429.95,273.193 429.543,272.787C429.137,272.382 428.933,271.9 428.933,271.342L428.933,269.592C427.713,270.962 426.189,272.065 424.359,272.901C422.529,273.738 420.293,274.157 417.65,274.157ZM487.562,274.157C482.683,274.157 478.375,273.421 474.64,271.951C470.904,270.48 467.994,268.198 465.91,265.104C463.826,262.011 462.784,258.08 462.784,253.313L462.784,222.201C462.784,221.643 462.987,221.161 463.394,220.756C463.801,220.35 464.284,220.147 464.843,220.147L479.786,220.147C480.345,220.147 480.828,220.35 481.234,220.756C481.641,221.161 481.844,221.643 481.844,222.201L481.844,253.009C481.844,254.886 482.314,256.331 483.255,257.345C484.195,258.359 485.606,258.867 487.486,258.867C489.367,258.867 490.777,258.359 491.717,257.345C492.658,256.331 493.128,254.886 493.128,253.009L493.128,222.201C493.128,221.643 493.331,221.161 493.738,220.756C494.144,220.35 494.627,220.147 495.186,220.147L510.13,220.147C510.689,220.147 511.172,220.35 511.578,220.756C511.985,221.161 512.188,221.643 512.188,222.201L512.188,253.313C512.188,258.08 511.146,262.011 509.062,265.104C506.978,268.198 504.081,270.48 500.371,271.951C496.66,273.421 492.391,274.157 487.562,274.157ZM264.558,273.396C263.999,273.396 263.517,273.193 263.11,272.787C262.703,272.382 262.5,271.9 262.5,271.342L262.5,222.201C262.5,221.643 262.703,221.161 263.11,220.756C263.517,220.35 263.999,220.147 264.558,220.147L302.984,220.147C303.543,220.147 304.026,220.35 304.432,220.756C304.839,221.161 305.042,221.643 305.042,222.201L305.042,233.763C305.042,234.321 304.839,234.803 304.432,235.209C304.026,235.615 303.543,235.817 302.984,235.817L281.179,235.817L281.179,241.447L301.459,241.447C302.018,241.447 302.501,241.649 302.908,242.055C303.314,242.461 303.517,242.943 303.517,243.5L303.517,254.987C303.517,255.545 303.314,256.027 302.908,256.432C302.501,256.838 302.018,257.041 301.459,257.041L281.179,257.041L281.179,271.342C281.179,271.9 280.976,272.382 280.569,272.787C280.162,273.193 279.68,273.396 279.12,273.396L264.558,273.396ZM310.76,273.396C310.201,273.396 309.718,273.193 309.312,272.787C308.905,272.382 308.702,271.9 308.702,271.342L308.702,221.44C308.702,220.882 308.905,220.401 309.312,219.995C309.718,219.589 310.201,219.386 310.76,219.386L324.407,219.386C324.967,219.386 325.449,219.589 325.856,219.995C326.263,220.401 326.466,220.882 326.466,221.44L326.466,271.342C326.466,271.9 326.263,272.382 325.856,272.787C325.449,273.193 324.967,273.396 324.407,273.396L310.76,273.396ZM382.198,273.396C381.639,273.396 381.156,273.193 380.749,272.787C380.343,272.382 380.139,271.9 380.139,271.342L380.139,235.893C380.139,235.336 380.343,234.854 380.749,234.448C381.156,234.042 381.639,233.84 382.198,233.84L395.845,233.84C396.404,233.84 396.887,234.042 397.293,234.448C397.7,234.854 397.903,235.336 397.903,235.893L397.903,271.342C397.903,271.9 397.7,272.382 397.293,272.787C396.887,273.193 396.404,273.396 395.845,273.396L382.198,273.396ZM519.888,273.396C519.329,273.396 518.846,273.193 518.44,272.787C518.033,272.382 517.83,271.9 517.83,271.342L517.83,222.201C517.83,221.643 518.033,221.161 518.44,220.756C518.846,220.35 519.329,220.147 519.888,220.147L535.442,220.147C536.001,220.147 536.483,220.35 536.89,220.756C537.297,221.161 537.5,221.643 537.5,222.201L537.5,271.342C537.5,271.9 537.297,272.382 536.89,272.787C536.483,273.193 536.001,273.396 535.442,273.396L519.888,273.396ZM423.978,260.54C424.943,260.54 425.693,260.363 426.227,260.008C426.76,259.653 427.142,259.145 427.37,258.486C427.599,257.827 427.739,257.041 427.79,256.128C427.891,254.962 427.942,254.011 427.942,253.275C427.942,252.54 427.891,251.615 427.79,250.499C427.739,249.687 427.574,249.003 427.294,248.445C427.015,247.887 426.608,247.456 426.074,247.152C425.541,246.848 424.842,246.695 423.978,246.695C423.063,246.695 422.339,246.873 421.805,247.228C421.271,247.583 420.89,248.09 420.661,248.749C420.432,249.409 420.267,250.195 420.166,251.107C420.013,252.781 420.013,254.455 420.166,256.128C420.267,257.041 420.432,257.827 420.661,258.486C420.89,259.145 421.271,259.653 421.805,260.008C422.339,260.363 423.063,260.54 423.978,260.54ZM382.579,229.656C382.02,229.656 381.537,229.453 381.13,229.047C380.724,228.641 380.521,228.16 380.521,227.602L380.521,218.397C380.521,217.84 380.724,217.358 381.13,216.952C381.537,216.546 382.02,216.344 382.579,216.344L395.464,216.344C396.023,216.344 396.506,216.546 396.912,216.952C397.319,217.358 397.522,217.84 397.522,218.397L397.522,227.602C397.522,228.16 397.319,228.641 396.912,229.047C396.506,229.453 396.023,229.656 395.464,229.656L382.579,229.656Z" fill='url(#fluid_ui)' />
     

    </g>
    <g id="modern_css_starter" transform="matrix(0.727273,0,0,0.729385,-189.909,-111.768)">
        <path d="M475.975,303.273C474.967,303.273 474.049,303.078 473.221,302.687C472.394,302.297 471.728,301.77 471.224,301.107C470.72,300.443 470.467,299.692 470.467,298.853C470.467,297.506 471.032,296.433 472.162,295.633C473.292,294.832 474.765,294.306 476.581,294.052L481.09,293.437L481.09,292.588C481.09,291.652 480.812,290.92 480.258,290.393C479.703,289.866 478.8,289.602 477.549,289.602C476.661,289.602 475.935,289.778 475.37,290.129C474.805,290.481 474.412,290.929 474.19,291.476C474.069,291.769 473.857,291.915 473.554,291.915L472.192,291.915C471.97,291.915 471.804,291.852 471.693,291.725C471.582,291.598 471.527,291.447 471.527,291.271C471.527,290.978 471.643,290.617 471.875,290.188C472.107,289.759 472.465,289.339 472.949,288.929C473.433,288.519 474.054,288.173 474.81,287.89C475.567,287.607 476.49,287.466 477.579,287.466C478.79,287.466 479.809,287.617 480.636,287.919C481.463,288.222 482.114,288.627 482.588,289.134C483.062,289.641 483.405,290.217 483.617,290.861C483.829,291.505 483.934,292.159 483.934,292.822L483.934,302.307C483.934,302.502 483.869,302.663 483.738,302.79C483.607,302.917 483.44,302.98 483.238,302.98L481.846,302.98C481.624,302.98 481.453,302.917 481.332,302.79C481.211,302.663 481.15,302.502 481.15,302.307L481.15,301.048C480.888,301.399 480.535,301.746 480.091,302.087C479.647,302.429 479.092,302.712 478.427,302.936C477.761,303.161 476.944,303.273 475.975,303.273ZM448.133,303.273C446.378,303.273 444.905,303.009 443.715,302.482C442.525,301.955 441.612,301.277 440.976,300.448C440.341,299.619 440.003,298.745 439.962,297.828C439.962,297.672 440.028,297.53 440.159,297.404C440.29,297.277 440.447,297.213 440.628,297.213L442.172,297.213C442.414,297.213 442.595,297.272 442.716,297.389C442.837,297.506 442.918,297.643 442.958,297.799C443.079,298.267 443.332,298.731 443.715,299.189C444.098,299.648 444.648,300.028 445.364,300.331C446.08,300.633 447.004,300.785 448.133,300.785C449.868,300.785 451.144,300.487 451.962,299.892C452.779,299.297 453.187,298.501 453.187,297.506C453.187,296.823 452.97,296.272 452.537,295.852C452.103,295.433 451.442,295.057 450.554,294.725C449.667,294.393 448.517,294.032 447.104,293.642C445.632,293.232 444.411,292.783 443.443,292.296C442.474,291.808 441.753,291.203 441.279,290.481C440.805,289.759 440.568,288.841 440.568,287.729C440.568,286.675 440.86,285.734 441.445,284.904C442.03,284.075 442.878,283.416 443.987,282.928C445.097,282.44 446.429,282.196 447.982,282.196C449.233,282.196 450.327,282.357 451.266,282.679C452.204,283.001 452.985,283.431 453.611,283.967C454.236,284.504 454.71,285.08 455.033,285.695C455.356,286.309 455.528,286.909 455.548,287.495C455.548,287.631 455.497,287.763 455.396,287.89C455.296,288.017 455.134,288.08 454.912,288.08L453.308,288.08C453.167,288.08 453.021,288.041 452.869,287.963C452.718,287.885 452.602,287.739 452.521,287.524C452.4,286.724 451.936,286.051 451.129,285.504C450.322,284.958 449.273,284.685 447.982,284.685C446.671,284.685 445.606,284.929 444.789,285.416C443.972,285.904 443.564,286.665 443.564,287.7C443.564,288.363 443.755,288.915 444.139,289.354C444.522,289.793 445.127,290.178 445.954,290.51C446.782,290.842 447.861,291.193 449.193,291.564C450.807,291.993 452.128,292.447 453.157,292.925C454.186,293.403 454.948,293.998 455.442,294.711C455.936,295.423 456.183,296.335 456.183,297.447C456.183,298.677 455.85,299.726 455.185,300.594C454.519,301.463 453.586,302.126 452.385,302.585C451.185,303.043 449.768,303.273 448.133,303.273ZM421.895,303.273C420.14,303.273 418.667,303.009 417.477,302.482C416.287,301.955 415.374,301.277 414.738,300.448C414.103,299.619 413.765,298.745 413.724,297.828C413.724,297.672 413.79,297.53 413.921,297.404C414.052,297.277 414.208,297.213 414.39,297.213L415.933,297.213C416.176,297.213 416.357,297.272 416.478,297.389C416.599,297.506 416.68,297.643 416.72,297.799C416.841,298.267 417.094,298.731 417.477,299.189C417.86,299.648 418.41,300.028 419.126,300.331C419.842,300.633 420.765,300.785 421.895,300.785C423.63,300.785 424.906,300.487 425.724,299.892C426.541,299.297 426.949,298.501 426.949,297.506C426.949,296.823 426.732,296.272 426.299,295.852C425.865,295.433 425.204,295.057 424.316,294.725C423.429,294.393 422.279,294.032 420.866,293.642C419.394,293.232 418.173,292.783 417.205,292.296C416.236,291.808 415.515,291.203 415.041,290.481C414.567,289.759 414.33,288.841 414.33,287.729C414.33,286.675 414.622,285.734 415.207,284.904C415.792,284.075 416.64,283.416 417.749,282.928C418.859,282.44 420.19,282.196 421.744,282.196C422.995,282.196 424.089,282.357 425.028,282.679C425.966,283.001 426.747,283.431 427.373,283.967C427.998,284.504 428.472,285.08 428.795,285.695C429.118,286.309 429.29,286.909 429.31,287.495C429.31,287.631 429.259,287.763 429.158,287.89C429.058,288.017 428.896,288.08 428.674,288.08L427.07,288.08C426.929,288.08 426.783,288.041 426.631,287.963C426.48,287.885 426.364,287.739 426.283,287.524C426.162,286.724 425.698,286.051 424.891,285.504C424.084,284.958 423.035,284.685 421.744,284.685C420.433,284.685 419.368,284.929 418.551,285.416C417.734,285.904 417.326,286.665 417.326,287.7C417.326,288.363 417.517,288.915 417.901,289.354C418.284,289.793 418.889,290.178 419.716,290.51C420.544,290.842 421.623,291.193 422.954,291.564C424.569,291.993 425.89,292.447 426.919,292.925C427.948,293.403 428.71,293.998 429.204,294.711C429.698,295.423 429.945,296.335 429.945,297.447C429.945,298.677 429.612,299.726 428.947,300.594C428.281,301.463 427.348,302.126 426.147,302.585C424.947,303.043 423.529,303.273 421.895,303.273ZM309.256,303.273C308.147,303.273 307.188,303.082 306.381,302.702C305.574,302.321 304.914,301.804 304.399,301.15C303.885,300.497 303.501,299.75 303.249,298.911C302.997,298.072 302.851,297.184 302.81,296.247C302.79,295.935 302.78,295.642 302.78,295.369C302.78,295.096 302.79,294.803 302.81,294.491C302.851,293.574 302.997,292.696 303.249,291.856C303.501,291.017 303.885,290.266 304.399,289.602C304.914,288.939 305.574,288.417 306.381,288.036C307.188,287.656 308.147,287.466 309.256,287.466C310.447,287.466 311.435,287.67 312.222,288.08C313.009,288.49 313.655,288.997 314.159,289.602L314.159,282.87C314.159,282.675 314.225,282.514 314.356,282.387C314.487,282.26 314.653,282.196 314.855,282.196L316.308,282.196C316.509,282.196 316.676,282.26 316.807,282.387C316.938,282.514 317.004,282.675 317.004,282.87L317.004,302.307C317.004,302.502 316.938,302.663 316.807,302.79C316.676,302.917 316.509,302.98 316.308,302.98L314.946,302.98C314.724,302.98 314.552,302.917 314.431,302.79C314.31,302.663 314.25,302.502 314.25,302.307L314.25,301.077C313.745,301.702 313.09,302.224 312.283,302.643C311.476,303.063 310.467,303.273 309.256,303.273ZM292.581,303.273C291.048,303.273 289.767,302.99 288.738,302.424C287.709,301.858 286.922,301.072 286.378,300.067C285.833,299.062 285.53,297.916 285.47,296.628C285.449,296.296 285.439,295.872 285.439,295.355C285.439,294.837 285.449,294.423 285.47,294.11C285.53,292.803 285.838,291.652 286.393,290.656C286.947,289.661 287.739,288.88 288.768,288.314C289.797,287.749 291.068,287.466 292.581,287.466C294.095,287.466 295.366,287.749 296.395,288.314C297.424,288.88 298.215,289.661 298.77,290.656C299.325,291.652 299.633,292.803 299.693,294.11C299.713,294.423 299.724,294.837 299.724,295.355C299.724,295.872 299.713,296.296 299.693,296.628C299.633,297.916 299.33,299.062 298.785,300.067C298.241,301.072 297.454,301.858 296.425,302.424C295.396,302.99 294.115,303.273 292.581,303.273ZM517.92,303.273C515.822,303.273 514.157,302.653 512.926,301.414C511.696,300.175 511.02,298.482 510.899,296.335C510.879,296.081 510.869,295.755 510.869,295.355C510.869,294.954 510.879,294.628 510.899,294.374C510.98,292.988 511.312,291.773 511.897,290.729C512.483,289.685 513.285,288.88 514.303,288.314C515.322,287.749 516.518,287.466 517.89,287.466C519.423,287.466 520.709,287.778 521.748,288.402C522.787,289.027 523.579,289.915 524.124,291.066C524.668,292.217 524.941,293.564 524.941,295.106L524.941,295.603C524.941,295.818 524.875,295.984 524.744,296.101C524.613,296.218 524.447,296.277 524.245,296.277L513.774,296.277L513.774,296.54C513.814,297.34 513.996,298.087 514.319,298.779C514.641,299.472 515.11,300.033 515.726,300.463C516.341,300.892 517.062,301.107 517.89,301.107C518.616,301.107 519.221,300.999 519.705,300.785C520.19,300.57 520.583,300.331 520.886,300.067C521.188,299.804 521.39,299.594 521.491,299.438C521.672,299.204 521.814,299.062 521.915,299.014C522.015,298.965 522.177,298.94 522.399,298.94L523.882,298.94C524.063,298.94 524.22,298.994 524.351,299.101C524.482,299.209 524.537,299.36 524.517,299.555C524.497,299.848 524.336,300.204 524.033,300.624C523.73,301.043 523.302,301.458 522.747,301.868C522.192,302.277 521.506,302.614 520.689,302.878C519.872,303.141 518.949,303.273 517.92,303.273ZM327.808,303.273C325.709,303.273 324.045,302.653 322.814,301.414C321.583,300.175 320.908,298.482 320.787,296.335C320.766,296.081 320.756,295.755 320.756,295.355C320.756,294.954 320.766,294.628 320.787,294.374C320.867,292.988 321.2,291.773 321.785,290.729C322.37,289.685 323.172,288.88 324.191,288.314C325.21,287.749 326.405,287.466 327.777,287.466C329.311,287.466 330.597,287.778 331.636,288.402C332.675,289.027 333.467,289.915 334.011,291.066C334.556,292.217 334.829,293.564 334.829,295.106L334.829,295.603C334.829,295.818 334.763,295.984 334.632,296.101C334.501,296.218 334.334,296.277 334.133,296.277L323.662,296.277L323.662,296.54C323.702,297.34 323.883,298.087 324.206,298.779C324.529,299.472 324.998,300.033 325.614,300.463C326.229,300.892 326.95,301.107 327.777,301.107C328.504,301.107 329.109,300.999 329.593,300.785C330.077,300.57 330.471,300.331 330.773,300.067C331.076,299.804 331.278,299.594 331.379,299.438C331.56,299.204 331.701,299.062 331.802,299.014C331.903,298.965 332.065,298.94 332.287,298.94L333.769,298.94C333.951,298.94 334.107,298.994 334.238,299.101C334.37,299.209 334.425,299.36 334.405,299.555C334.385,299.848 334.223,300.204 333.921,300.624C333.618,301.043 333.189,301.458 332.635,301.868C332.08,302.277 331.394,302.614 330.577,302.878C329.76,303.141 328.837,303.273 327.808,303.273ZM403.072,303.273C401.316,303.273 399.844,303.009 398.653,302.482C397.463,301.955 396.55,301.277 395.914,300.448C395.279,299.619 394.941,298.745 394.901,297.828C394.901,297.672 394.966,297.53 395.097,297.404C395.229,297.277 395.385,297.213 395.566,297.213L397.11,297.213C397.352,297.213 397.534,297.272 397.655,297.389C397.776,297.506 397.856,297.643 397.897,297.799C398.018,298.267 398.27,298.731 398.653,299.189C399.037,299.648 399.586,300.028 400.303,300.331C401.019,300.633 401.942,300.785 403.072,300.785C404.807,300.785 406.083,300.487 406.9,299.892C407.717,299.297 408.126,298.501 408.126,297.506C408.126,296.823 407.909,296.272 407.475,295.852C407.041,295.433 406.38,295.057 405.493,294.725C404.605,294.393 403.455,294.032 402.043,293.642C400.57,293.232 399.349,292.783 398.381,292.296C397.413,291.808 396.691,291.203 396.217,290.481C395.743,289.759 395.506,288.841 395.506,287.729C395.506,286.675 395.798,285.734 396.384,284.904C396.969,284.075 397.816,283.416 398.926,282.928C400.035,282.44 401.367,282.196 402.92,282.196C404.171,282.196 405.266,282.357 406.204,282.679C407.142,283.001 407.924,283.431 408.549,283.967C409.175,284.504 409.649,285.08 409.972,285.695C410.294,286.309 410.466,286.909 410.486,287.495C410.486,287.631 410.436,287.763 410.335,287.89C410.234,288.017 410.073,288.08 409.851,288.08L408.247,288.08C408.105,288.08 407.959,288.041 407.808,287.963C407.657,287.885 407.541,287.739 407.46,287.524C407.339,286.724 406.875,286.051 406.068,285.504C405.261,284.958 404.212,284.685 402.92,284.685C401.609,284.685 400.545,284.929 399.728,285.416C398.911,285.904 398.502,286.665 398.502,287.7C398.502,288.363 398.694,288.915 399.077,289.354C399.46,289.793 400.066,290.178 400.893,290.51C401.72,290.842 402.799,291.193 404.131,291.564C405.745,291.993 407.066,292.447 408.095,292.925C409.124,293.403 409.886,293.998 410.38,294.711C410.875,295.423 411.122,296.335 411.122,297.447C411.122,298.677 410.789,299.726 410.123,300.594C409.457,301.463 408.524,302.126 407.324,302.585C406.123,303.043 404.706,303.273 403.072,303.273ZM383.734,303.273C381.877,303.273 380.339,302.941 379.119,302.277C377.898,301.614 376.975,300.687 376.349,299.497C375.724,298.306 375.381,296.921 375.321,295.34C375.3,294.54 375.29,293.681 375.29,292.764C375.29,291.847 375.3,290.968 375.321,290.129C375.381,288.549 375.724,287.163 376.349,285.973C376.975,284.782 377.898,283.855 379.119,283.192C380.339,282.528 381.877,282.196 383.734,282.196C385.126,282.196 386.346,282.382 387.395,282.753C388.445,283.123 389.317,283.621 390.013,284.246C390.709,284.87 391.239,285.568 391.602,286.339C391.965,287.109 392.167,287.905 392.207,288.724C392.227,288.9 392.172,289.046 392.041,289.163C391.91,289.28 391.753,289.339 391.572,289.339L389.907,289.339C389.726,289.339 389.569,289.29 389.438,289.193C389.307,289.095 389.211,288.919 389.151,288.666C388.808,287.144 388.167,286.099 387.229,285.534C386.291,284.968 385.126,284.685 383.734,284.685C382.099,284.685 380.808,285.129 379.86,286.017C378.912,286.904 378.407,288.324 378.347,290.276C378.286,291.876 378.286,293.515 378.347,295.194C378.407,297.145 378.912,298.565 379.86,299.453C380.808,300.341 382.099,300.785 383.734,300.785C385.126,300.785 386.291,300.502 387.229,299.936C388.167,299.37 388.808,298.326 389.151,296.803C389.211,296.55 389.307,296.374 389.438,296.277C389.569,296.179 389.726,296.13 389.907,296.13L391.572,296.13C391.753,296.13 391.91,296.184 392.041,296.291C392.172,296.399 392.227,296.54 392.207,296.716C392.167,297.535 391.965,298.335 391.602,299.116C391.239,299.897 390.709,300.599 390.013,301.224C389.317,301.848 388.445,302.346 387.395,302.717C386.346,303.087 385.126,303.273 383.734,303.273ZM263.196,302.98C262.994,302.98 262.828,302.917 262.697,302.79C262.566,302.663 262.5,302.502 262.5,302.307L262.5,283.192C262.5,282.977 262.566,282.806 262.697,282.679C262.828,282.553 262.994,282.489 263.196,282.489L264.709,282.489C264.951,282.489 265.133,282.548 265.254,282.665C265.375,282.782 265.456,282.879 265.496,282.958L271.882,294.784L278.328,282.958C278.368,282.879 278.444,282.782 278.555,282.665C278.665,282.548 278.842,282.489 279.084,282.489L280.567,282.489C280.789,282.489 280.965,282.553 281.097,282.679C281.228,282.806 281.293,282.977 281.293,283.192L281.293,302.307C281.293,302.502 281.228,302.663 281.097,302.79C280.965,302.917 280.789,302.98 280.567,302.98L279.084,302.98C278.882,302.98 278.716,302.917 278.585,302.79C278.454,302.663 278.388,302.502 278.388,302.307L278.388,287.905L273.334,297.447C273.253,297.643 273.132,297.794 272.971,297.901C272.81,298.009 272.608,298.062 272.366,298.062L271.428,298.062C271.165,298.062 270.964,298.009 270.822,297.901C270.681,297.794 270.56,297.643 270.459,297.447L265.375,287.905L265.375,302.307C265.375,302.502 265.309,302.663 265.178,302.79C265.047,302.917 264.881,302.98 264.679,302.98L263.196,302.98ZM529.268,302.98C529.067,302.98 528.9,302.917 528.769,302.79C528.638,302.663 528.572,302.502 528.572,302.307L528.572,288.461C528.572,288.266 528.638,288.1 528.769,287.963C528.9,287.827 529.067,287.758 529.268,287.758L530.661,287.758C530.862,287.758 531.034,287.827 531.175,287.963C531.316,288.1 531.387,288.266 531.387,288.461L531.387,289.749C531.79,289.085 532.345,288.588 533.051,288.256C533.757,287.924 534.615,287.758 535.624,287.758L536.804,287.758C537.006,287.758 537.172,287.822 537.303,287.949C537.434,288.075 537.5,288.236 537.5,288.432L537.5,289.632C537.5,289.827 537.434,289.983 537.303,290.1C537.172,290.217 537.006,290.276 536.804,290.276L534.988,290.276C533.899,290.276 533.041,290.583 532.416,291.198C531.79,291.813 531.478,292.647 531.478,293.701L531.478,302.307C531.478,302.502 531.407,302.663 531.266,302.79C531.125,302.917 530.953,302.98 530.751,302.98L529.268,302.98ZM339.156,302.98C338.954,302.98 338.788,302.917 338.657,302.79C338.526,302.663 338.46,302.502 338.46,302.307L338.46,288.461C338.46,288.266 338.526,288.1 338.657,287.963C338.788,287.827 338.954,287.758 339.156,287.758L340.548,287.758C340.75,287.758 340.922,287.827 341.063,287.963C341.204,288.1 341.275,288.266 341.275,288.461L341.275,289.749C341.678,289.085 342.233,288.588 342.939,288.256C343.645,287.924 344.503,287.758 345.511,287.758L346.692,287.758C346.893,287.758 347.06,287.822 347.191,287.949C347.322,288.075 347.388,288.236 347.388,288.432L347.388,289.632C347.388,289.827 347.322,289.983 347.191,290.1C347.06,290.217 346.893,290.276 346.692,290.276L344.876,290.276C343.786,290.276 342.929,290.583 342.304,291.198C341.678,291.813 341.365,292.647 341.365,293.701L341.365,302.307C341.365,302.502 341.295,302.663 341.154,302.79C341.012,302.917 340.841,302.98 340.639,302.98L339.156,302.98ZM488.988,302.98C488.787,302.98 488.62,302.917 488.489,302.79C488.358,302.663 488.292,302.502 488.292,302.307L488.292,288.461C488.292,288.266 488.358,288.1 488.489,287.963C488.62,287.827 488.787,287.758 488.988,287.758L490.38,287.758C490.582,287.758 490.754,287.827 490.895,287.963C491.036,288.1 491.107,288.266 491.107,288.461L491.107,289.749C491.51,289.085 492.065,288.588 492.771,288.256C493.477,287.924 494.335,287.758 495.344,287.758L496.524,287.758C496.726,287.758 496.892,287.822 497.023,287.949C497.154,288.075 497.22,288.236 497.22,288.432L497.22,289.632C497.22,289.827 497.154,289.983 497.023,290.1C496.892,290.217 496.726,290.276 496.524,290.276L494.708,290.276C493.619,290.276 492.761,290.583 492.136,291.198C491.51,291.813 491.198,292.647 491.198,293.701L491.198,302.307C491.198,302.502 491.127,302.663 490.986,302.79C490.845,302.917 490.673,302.98 490.471,302.98L488.988,302.98ZM350.656,302.98C350.454,302.98 350.288,302.917 350.157,302.79C350.026,302.663 349.96,302.502 349.96,302.307L349.96,288.432C349.96,288.236 350.026,288.075 350.157,287.949C350.288,287.822 350.454,287.758 350.656,287.758L352.079,287.758C352.28,287.758 352.447,287.822 352.578,287.949C352.709,288.075 352.775,288.236 352.775,288.432L352.775,289.72C353.299,289.056 353.96,288.514 354.757,288.095C355.554,287.675 356.578,287.466 357.828,287.466C359.14,287.466 360.255,287.744 361.173,288.3C362.091,288.856 362.787,289.627 363.261,290.612C363.735,291.598 363.972,292.744 363.972,294.052L363.972,302.307C363.972,302.502 363.906,302.663 363.775,302.79C363.644,302.917 363.478,302.98 363.276,302.98L361.763,302.98C361.561,302.98 361.394,302.917 361.263,302.79C361.132,302.663 361.067,302.502 361.067,302.307L361.067,294.198C361.067,292.832 360.724,291.764 360.038,290.993C359.352,290.222 358.343,289.837 357.011,289.837C355.761,289.837 354.757,290.222 354,290.993C353.244,291.764 352.865,292.832 352.865,294.198L352.865,302.307C352.865,302.502 352.8,302.663 352.669,302.79C352.538,302.917 352.371,302.98 352.169,302.98L350.656,302.98ZM465.898,302.98C464.768,302.98 463.85,302.77 463.144,302.351C462.438,301.931 461.923,301.336 461.6,300.565C461.278,299.794 461.116,298.882 461.116,297.828L461.116,290.1L458.756,290.1C458.554,290.1 458.387,290.037 458.256,289.91C458.125,289.783 458.06,289.622 458.06,289.427L458.06,288.432C458.06,288.236 458.125,288.075 458.256,287.949C458.387,287.822 458.554,287.758 458.756,287.758L461.116,287.758L461.116,282.87C461.116,282.675 461.182,282.514 461.313,282.387C461.444,282.26 461.61,282.196 461.812,282.196L463.235,282.196C463.436,282.196 463.603,282.26 463.734,282.387C463.865,282.514 463.931,282.675 463.931,282.87L463.931,287.758L467.683,287.758C467.905,287.758 468.077,287.822 468.198,287.949C468.319,288.075 468.379,288.236 468.379,288.432L468.379,289.427C468.379,289.622 468.319,289.783 468.198,289.91C468.077,290.037 467.905,290.1 467.683,290.1L463.931,290.1L463.931,297.623C463.931,298.54 464.092,299.262 464.415,299.789C464.738,300.316 465.313,300.58 466.14,300.58L467.986,300.58C468.188,300.58 468.354,300.643 468.485,300.77C468.616,300.897 468.682,301.058 468.682,301.253L468.682,302.307C468.682,302.502 468.616,302.663 468.485,302.79C468.354,302.917 468.188,302.98 467.986,302.98L465.898,302.98ZM505.936,302.98C504.806,302.98 503.888,302.77 503.182,302.351C502.476,301.931 501.961,301.336 501.638,300.565C501.316,299.794 501.154,298.882 501.154,297.828L501.154,290.1L498.794,290.1C498.592,290.1 498.425,290.037 498.294,289.91C498.163,289.783 498.098,289.622 498.098,289.427L498.098,288.432C498.098,288.236 498.163,288.075 498.294,287.949C498.425,287.822 498.592,287.758 498.794,287.758L501.154,287.758L501.154,282.87C501.154,282.675 501.22,282.514 501.351,282.387C501.482,282.26 501.648,282.196 501.85,282.196L503.273,282.196C503.474,282.196 503.641,282.26 503.772,282.387C503.903,282.514 503.969,282.675 503.969,282.87L503.969,287.758L507.721,287.758C507.943,287.758 508.115,287.822 508.236,287.949C508.357,288.075 508.417,288.236 508.417,288.432L508.417,289.427C508.417,289.622 508.357,289.783 508.236,289.91C508.115,290.037 507.943,290.1 507.721,290.1L503.969,290.1L503.969,297.623C503.969,298.54 504.13,299.262 504.453,299.789C504.776,300.316 505.351,300.58 506.178,300.58L508.024,300.58C508.226,300.58 508.392,300.643 508.523,300.77C508.654,300.897 508.72,301.058 508.72,301.253L508.72,302.307C508.72,302.502 508.654,302.663 508.523,302.79C508.392,302.917 508.226,302.98 508.024,302.98L505.936,302.98ZM476.611,301.077C477.438,301.077 478.195,300.907 478.881,300.565C479.567,300.224 480.106,299.692 480.5,298.97C480.893,298.248 481.09,297.34 481.09,296.247L481.09,295.428L477.579,295.925C476.147,296.12 475.067,296.447 474.341,296.906C473.615,297.365 473.252,297.945 473.252,298.648C473.252,299.194 473.418,299.648 473.751,300.009C474.084,300.37 474.508,300.638 475.022,300.814C475.536,300.989 476.066,301.077 476.611,301.077ZM292.581,301.019C293.832,301.019 294.831,300.633 295.577,299.862C296.324,299.092 296.727,297.965 296.788,296.481C296.808,296.189 296.818,295.818 296.818,295.369C296.818,294.92 296.808,294.55 296.788,294.257C296.727,292.774 296.324,291.647 295.577,290.876C294.831,290.105 293.832,289.72 292.581,289.72C291.331,289.72 290.327,290.105 289.57,290.876C288.814,291.647 288.415,292.774 288.375,294.257C288.355,294.55 288.345,294.92 288.345,295.369C288.345,295.818 288.355,296.189 288.375,296.481C288.415,297.965 288.814,299.092 289.57,299.862C290.327,300.633 291.331,301.019 292.581,301.019ZM309.892,300.902C310.901,300.902 311.708,300.677 312.313,300.228C312.918,299.78 313.372,299.209 313.675,298.516C313.977,297.823 314.139,297.116 314.159,296.394C314.179,296.081 314.189,295.706 314.189,295.267C314.189,294.828 314.179,294.452 314.159,294.14C314.139,293.457 313.972,292.783 313.66,292.12C313.347,291.456 312.883,290.91 312.268,290.481C311.652,290.051 310.86,289.837 309.892,289.837C308.863,289.837 308.046,290.056 307.441,290.495C306.835,290.934 306.402,291.51 306.139,292.222C305.877,292.935 305.726,293.701 305.685,294.52C305.665,295.086 305.665,295.652 305.685,296.218C305.726,297.038 305.877,297.804 306.139,298.516C306.402,299.228 306.835,299.804 307.441,300.243C308.046,300.682 308.863,300.902 309.892,300.902ZM513.774,294.257L522.066,294.257L522.066,294.169C522.066,293.291 521.899,292.51 521.567,291.827C521.234,291.144 520.754,290.603 520.129,290.203C519.504,289.802 518.757,289.602 517.89,289.602C517.022,289.602 516.281,289.802 515.665,290.203C515.05,290.603 514.581,291.144 514.258,291.827C513.935,292.51 513.774,293.291 513.774,294.169L513.774,294.257ZM323.662,294.257L331.954,294.257L331.954,294.169C331.954,293.291 331.787,292.51 331.454,291.827C331.121,291.144 330.642,290.603 330.017,290.203C329.391,289.802 328.645,289.602 327.777,289.602C326.91,289.602 326.168,289.802 325.553,290.203C324.938,290.603 324.469,291.144 324.146,291.827C323.823,292.51 323.662,293.291 323.662,294.169L323.662,294.257Z" style="fill:rgb(156,156,156);fill-rule:nonzero;"/>
    </g>
    <g id="blob_1" transform="matrix(-0.0180105,-0.0796581,0.0739726,-0.0168223,163.397,21.3023)">
        <path d="M213.191,107.402C156.055,181.396 94.019,80.388 162.26,63.227C194.986,54.997 191.79,8.622 218.643,16.209C246.136,23.976 244.771,66.505 213.191,107.402Z" style="fill:rgb(117,54,162);fill-rule:nonzero;"/>
    </g>
    <g id="blob_2" transform="matrix(0.634461,-0.187126,0.186584,0.636305,-300.153,57.1513)">
        <path d="M462.842,262.26C464.067,263.879 470.72,267.039 471.82,263.186C472.945,259.249 469.506,250.689 465.804,252.726C462.101,254.762 460.25,258.835 462.842,262.26Z" style="fill:rgb(117,54,162);fill-rule:nonzero;"/>
    </g>
    <g id="blob_3" transform="matrix(0.963636,0,0,0.966436,-392.222,-257.665)">
        <circle cx="448.707" cy="411.131" r="1.678" style="fill:rgb(117,54,162);"/>
    </g>
    <defs>
        <linearGradient id="lines" x1="0" y1="0" x2="1" y2="0" gradientUnits="userSpaceOnUse" gradientTransform="matrix(1.16331e-14,-189.983,173.346,1.06144e-14,419.341,343.975)"><stop offset="0" style="stop-color:rgb(90,90,90);stop-opacity:1"/><stop offset="0.2" style="stop-color:rgb(90,90,90);stop-opacity:0"/><stop offset="0.67" style="stop-color:rgb(126,126,126);stop-opacity:0"/><stop offset="1" style="stop-color:rgb(90,90,90);stop-opacity:1"/></linearGradient>

        <linearGradient id='fluid_ui' gradientUnits='objectBoundingBox' x1='0' y1='0' x2='1' y2='1'>
         <stop offset='0' stop-color='#34817A;'>
            <animate attributeName="stop-color"
               values="#34817A;#7536A2;#121547;#34817A;" dur="10s" repeatCount="indefinite">
            </animate>
         </stop>
         <stop offset='.5' stop-color='#7536A2'>
            <animate attributeName="stop-color"
               values="#7536A2;#121547;#34817A;#7536A2;" dur="10s" repeatCount="indefinite">
            </animate>
         </stop>
         <stop offset='1' stop-color='#121547'>
            <animate attributeName="stop-color"
               values="#121547;#34817A;#7536A2;#121547;" dur="10s" repeatCount="indefinite">
            </animate>
         </stop>
         <animateTransform attributeName="gradientTransform" type="rotate" from="0 .5 .5" to="360 .5 .5"
            dur="20s" repeatCount="indefinite" />
      </linearGradient>

    </defs>
</svg>
